# xmcd
#
# Track frame offsets:
#	150
#	15722
#	33626
#	45444
#	59424
#	74086
#	91227
#	104479
#	128679
#	136777
#	154444
#	173758
#	195357
#	219097
#	236235
#	263927
#	279817
#
# Disc length: 3939
#
# Revision: 1
# Processed by: cddbd v1.5.1PL0 Copyright (c) Steve Scherf et al.
# Submitted via: CDex 1.51
# Normalized: r0:TDELIM( - )
#
DISCID=ee0f6111
DTITLE=Various Artist - Brave New Music
DYEAR=2000
DGENRE=New Age
TTITLE0=Muse - Innocent Voices
TTITLE1=Janus - Traveller
TTITLE2=Kate St John - Le Premier Bonheur Du Jour
TTITLE3=Ryo Kawasaki - Again
TTITLE4=Volker Leiss - Magic Wings
TTITLE5=Suzanne Cianni - Turning
TTITLE6=Ocarina - Forever
TTITLE7=Naoko Terai - First Love
TTITLE8=Cola Laila - Mazeltov
TTITLE9=Marc Hirte - Bridge to the Heart
TTITLE10=Yanni - I Love You Perfect
TTITLE11=Volker Leiss - Fruhling Und Sommer
TTITLE12=Han-Jurgen Hufeisen - Hiroshima Mon Amour
TTITLE13=Demetrios - Music of the Night
TTITLE14=Charlie Mariano - En Aranjuez Con Tu Amour
TTITLE15=Chicuelo - Samba Pa Ti
TTITLE16=Kitty Winter, Gipsy Nova - The Dance
EXTD=YEAR: 2000
EXTT0=
EXTT1=
EXTT2=
EXTT3=
EXTT4=
EXTT5=
EXTT6=
EXTT7=
EXTT8=
EXTT9=
EXTT10=
EXTT11=
EXTT12=
EXTT13=
EXTT14=
EXTT15=
EXTT16=
PLAYORDER=
